# xmcd
#
# Track frame offsets:
#	150
#	16502
#	32875
#	56433
#
# Disc length: 970 seconds
#
# Revision: 2
# Processed by: cddbd v1.5.2PL0 Copyright (c) Steve Scherf et al.
# Submitted via: audiograbber 1.83.01
#
DISCID=2303c804
DTITLE=Jeannine - Maxi
DYEAR=1998
DGENRE=Schlager
TTITLE0=Will dich wiederseh'n
TTITLE1=Will dich wiederseh'n ( Südsee Mix Version )
TTITLE2=Will dich wiederseh'n ( Maxi Version )
TTITLE3=Will dich wiederseh'n ( Wiederseh'n Mix Version )
EXTD=
EXTT0=
EXTT1=
EXTT2=
EXTT3=
PLAYORDER=
